# xmcd
#
# Track frame offsets: 
#        150
#        11390
#        23831
#        38908
#        52508
#        66300
#        76392
#        88675
#        105734
#        124406
#        141667
#        160722
#
# Disc length: 2486 seconds
#
# Revision: 0
# Processed by: cddbd v1.4PL0 Copyright (c) Steve Scherf et al.
# Submitted via: ExactAudioCopy v0.95a3
#
DISCID=9709b40c
DTITLE=Naomi Ashley - Small Town Thing
DYEAR=2002
DGENRE=
TTITLE0=Nothing to Say
TTITLE1=Other Woman
TTITLE2=Enough
TTITLE3=Lullaby
TTITLE4=Dog Child
TTITLE5=Down With It
TTITLE6=Tell Your Jesus
TTITLE7=Pride
TTITLE8=Worse Ways to Go
TTITLE9=You Got Nothing
TTITLE10=Cry Out of This City
TTITLE11=First Time I Saw You I Was Drunk
EXTD=
EXTT0=
EXTT1=
EXTT2=
EXTT3=
EXTT4=
EXTT5=
EXTT6=
EXTT7=
EXTT8=
EXTT9=
EXTT10=
EXTT11=
PLAYORDER=
